{
    "asset" : {
        "generator" : "Khronos glTF Blender I/O v1.8.19",
        "version" : "2.0"
    },
    "scene" : 0,
    "scenes" : [
        {
            "name" : "Scene",
            "nodes" : [
                0
            ]
        }
    ],
    "nodes" : [
        {
            "mesh" : 0,
            "name" : "Plane.001",
            "scale" : [
                8.628717422485352,
                7.585268020629883,
                7.585268020629883
            ],
            "translation" : [
                -6.474043369293213,
                -0.42379462718963623,
                0.31466102600097656
            ]
        }
    ],
    "materials" : [
        {
            "doubleSided" : true,
            "emissiveFactor" : [
                0.22035366296768188,
                0.22035366296768188,
                0.22035366296768188
            ],
            "name" : "Material.008",
            "pbrMetallicRoughness" : {
                "baseColorTexture" : {
                    "index" : 0
                },
                "metallicFactor" : 0,
                "roughnessFactor" : 0.5
            }
        },
        {
            "doubleSided" : true,
            "name" : "Material",
            "pbrMetallicRoughness" : {
                "baseColorFactor" : [
                    0.800000011920929,
                    0.800000011920929,
                    0.800000011920929,
                    1
                ],
                "metallicFactor" : 0,
                "roughnessFactor" : 0.4000000059604645
            }
        },
        {
            "doubleSided" : true,
            "name" : "Material.002",
            "pbrMetallicRoughness" : {
                "metallicFactor" : 0,
                "roughnessFactor" : 0.5
            }
        },
        {
            "doubleSided" : true,
            "name" : "Material.001",
            "pbrMetallicRoughness" : {
                "baseColorFactor" : [
                    0,
                    0,
                    0,
                    1
                ],
                "metallicFactor" : 0,
                "roughnessFactor" : 0.5
            }
        },
        {
            "doubleSided" : true,
            "name" : "Material.003",
            "pbrMetallicRoughness" : {
                "baseColorFactor" : [
                    0,
                    0,
                    0,
                    1
                ],
                "metallicFactor" : 0,
                "roughnessFactor" : 0.5
            }
        }
    ],
    "meshes" : [
        {
            "name" : "Plane.002",
            "primitives" : [
                {
                    "attributes" : {
                        "POSITION" : 0,
                        "NORMAL" : 1,
                        "TEXCOORD_0" : 2
                    },
                    "indices" : 3,
                    "material" : 0
                },
                {
                    "attributes" : {
                        "POSITION" : 4,
                        "NORMAL" : 5,
                        "TEXCOORD_0" : 6
                    },
                    "indices" : 7,
                    "material" : 1
                },
                {
                    "attributes" : {
                        "POSITION" : 8,
                        "NORMAL" : 9,
                        "TEXCOORD_0" : 10
                    },
                    "indices" : 11,
                    "material" : 2
                },
                {
                    "attributes" : {
                        "POSITION" : 12,
                        "NORMAL" : 13,
                        "TEXCOORD_0" : 14
                    },
                    "indices" : 15,
                    "material" : 3
                },
                {
                    "attributes" : {
                        "POSITION" : 16,
                        "NORMAL" : 17,
                        "TEXCOORD_0" : 18
                    },
                    "indices" : 19,
                    "material" : 4
                },
                {
                    "attributes" : {
                        "POSITION" : 20,
                        "NORMAL" : 21,
                        "TEXCOORD_0" : 22
                    },
                    "indices" : 23,
                    "material" : 1
                }
            ]
        }
    ],
    "textures" : [
        {
            "sampler" : 0,
            "source" : 0
        }
    ],
    "images" : [
        {
            "mimeType" : "image/png",
            "name" : "grey_floor_gall_0",
            "uri" : "grey_floor_gall_0.png"
        }
    ],
    "accessors" : [
        {
            "bufferView" : 0,
            "componentType" : 5126,
            "count" : 4,
            "max" : [
                1,
                0,
                1
            ],
            "min" : [
                -1,
                0,
                -1
            ],
            "type" : "VEC3"
        },
        {
            "bufferView" : 1,
            "componentType" : 5126,
            "count" : 4,
            "type" : "VEC3"
        },
        {
            "bufferView" : 2,
            "componentType" : 5126,
            "count" : 4,
            "type" : "VEC2"
        },
        {
            "bufferView" : 3,
            "componentType" : 5123,
            "count" : 6,
            "type" : "SCALAR"
        },
        {
            "bufferView" : 4,
            "componentType" : 5126,
            "count" : 120,
            "max" : [
                0.6038581132888794,
                1.1993436813354492,
                0.864100456237793
            ],
            "min" : [
                -0.8528003692626953,
                -0.04026562720537186,
                -0.949430525302887
            ],
            "type" : "VEC3"
        },
        {
            "bufferView" : 5,
            "componentType" : 5126,
            "count" : 120,
            "type" : "VEC3"
        },
        {
            "bufferView" : 6,
            "componentType" : 5126,
            "count" : 120,
            "type" : "VEC2"
        },
        {
            "bufferView" : 7,
            "componentType" : 5123,
            "count" : 180,
            "type" : "SCALAR"
        },
        {
            "bufferView" : 8,
            "componentType" : 5126,
            "count" : 16,
            "max" : [
                0.3493557572364807,
                0.760718822479248,
                0.7484832406044006
            ],
            "min" : [
                -0.5538867712020874,
                0.29774394631385803,
                -0.8061899542808533
            ],
            "type" : "VEC3"
        },
        {
            "bufferView" : 9,
            "componentType" : 5126,
            "count" : 16,
            "type" : "VEC3"
        },
        {
            "bufferView" : 10,
            "componentType" : 5126,
            "count" : 16,
            "type" : "VEC2"
        },
        {
            "bufferView" : 11,
            "componentType" : 5123,
            "count" : 24,
            "type" : "SCALAR"
        },
        {
            "bufferView" : 12,
            "componentType" : 5126,
            "count" : 772,
            "max" : [
                0.36749571561813354,
                0.7836989760398865,
                0.7873653769493103
            ],
            "min" : [
                -0.5726561546325684,
                0.27114465832710266,
                -0.8450719714164734
            ],
            "type" : "VEC3"
        },
        {
            "bufferView" : 13,
            "componentType" : 5126,
            "count" : 772,
            "type" : "VEC3"
        },
        {
            "bufferView" : 14,
            "componentType" : 5126,
            "count" : 772,
            "type" : "VEC2"
        },
        {
            "bufferView" : 15,
            "componentType" : 5123,
            "count" : 1428,
            "type" : "SCALAR"
        },
        {
            "bufferView" : 16,
            "componentType" : 5126,
            "count" : 3492,
            "max" : [
                -0.1440671980381012,
                0.2761833667755127,
                0.22479142248630524
            ],
            "min" : [
                -0.3306625783443451,
                0.0024343174882233143,
                -0.381061315536499
            ],
            "type" : "VEC3"
        },
        {
            "bufferView" : 17,
            "componentType" : 5126,
            "count" : 3492,
            "type" : "VEC3"
        },
        {
            "bufferView" : 18,
            "componentType" : 5126,
            "count" : 3492,
            "type" : "VEC2"
        },
        {
            "bufferView" : 19,
            "componentType" : 5123,
            "count" : 5814,
            "type" : "SCALAR"
        },
        {
            "bufferView" : 20,
            "componentType" : 5126,
            "count" : 60,
            "max" : [
                0.6675291061401367,
                0.05330894887447357,
                0.7841476202011108
            ],
            "min" : [
                -0.7824850082397461,
                0.000575125333853066,
                -0.8695074319839478
            ],
            "type" : "VEC3"
        },
        {
            "bufferView" : 21,
            "componentType" : 5126,
            "count" : 60,
            "type" : "VEC3"
        },
        {
            "bufferView" : 22,
            "componentType" : 5126,
            "count" : 60,
            "type" : "VEC2"
        },
        {
            "bufferView" : 23,
            "componentType" : 5123,
            "count" : 102,
            "type" : "SCALAR"
        }
    ],
    "bufferViews" : [
        {
            "buffer" : 0,
            "byteLength" : 48,
            "byteOffset" : 0
        },
        {
            "buffer" : 0,
            "byteLength" : 48,
            "byteOffset" : 48
        },
        {
            "buffer" : 0,
            "byteLength" : 32,
            "byteOffset" : 96
        },
        {
            "buffer" : 0,
            "byteLength" : 12,
            "byteOffset" : 128
        },
        {
            "buffer" : 0,
            "byteLength" : 1440,
            "byteOffset" : 140
        },
        {
            "buffer" : 0,
            "byteLength" : 1440,
            "byteOffset" : 1580
        },
        {
            "buffer" : 0,
            "byteLength" : 960,
            "byteOffset" : 3020
        },
        {
            "buffer" : 0,
            "byteLength" : 360,
            "byteOffset" : 3980
        },
        {
            "buffer" : 0,
            "byteLength" : 192,
            "byteOffset" : 4340
        },
        {
            "buffer" : 0,
            "byteLength" : 192,
            "byteOffset" : 4532
        },
        {
            "buffer" : 0,
            "byteLength" : 128,
            "byteOffset" : 4724
        },
        {
            "buffer" : 0,
            "byteLength" : 48,
            "byteOffset" : 4852
        },
        {
            "buffer" : 0,
            "byteLength" : 9264,
            "byteOffset" : 4900
        },
        {
            "buffer" : 0,
            "byteLength" : 9264,
            "byteOffset" : 14164
        },
        {
            "buffer" : 0,
            "byteLength" : 6176,
            "byteOffset" : 23428
        },
        {
            "buffer" : 0,
            "byteLength" : 2856,
            "byteOffset" : 29604
        },
        {
            "buffer" : 0,
            "byteLength" : 41904,
            "byteOffset" : 32460
        },
        {
            "buffer" : 0,
            "byteLength" : 41904,
            "byteOffset" : 74364
        },
        {
            "buffer" : 0,
            "byteLength" : 27936,
            "byteOffset" : 116268
        },
        {
            "buffer" : 0,
            "byteLength" : 11628,
            "byteOffset" : 144204
        },
        {
            "buffer" : 0,
            "byteLength" : 720,
            "byteOffset" : 155832
        },
        {
            "buffer" : 0,
            "byteLength" : 720,
            "byteOffset" : 156552
        },
        {
            "buffer" : 0,
            "byteLength" : 480,
            "byteOffset" : 157272
        },
        {
            "buffer" : 0,
            "byteLength" : 204,
            "byteOffset" : 157752
        }
    ],
    "samplers" : [
        {
            "magFilter" : 9729,
            "minFilter" : 9987
        }
    ],
    "buffers" : [
        {
            "byteLength" : 157956,
            "uri" : "galleri.bin"
        }
    ]
}
